M48
; DRILL file {KiCad (5.99.0-10407-g1e8b23402c)} date Tue Apr 27 17:36:27 2021
; FORMAT={-:-/ absolute / inch / decimal}
; #@! TF.CreationDate,2021-04-27T17:36:27+08:00
; #@! TF.GenerationSoftware,Kicad,Pcbnew,(5.99.0-10407-g1e8b23402c)
; #@! TF.FileFunction,MixedPlating,1,2
FMAT,2
INCH
; #@! TA.AperFunction,Plated,PTH,ViaDrill
T1C0.0120
; #@! TA.AperFunction,Plated,PTH,ViaDrill
T2C0.0150
; #@! TA.AperFunction,Plated,PTH,ViaDrill
T3C0.0200
; #@! TA.AperFunction,Plated,PTH,ComponentDrill
T4C0.0350
; #@! TA.AperFunction,Plated,PTH,ComponentDrill
T5C0.0394
%
G90
G05
T1
X1.63Y-1.7
X1.63Y-1.8
X1.63Y-1.9
X1.63Y-2.0
X1.63Y-2.1
X1.64Y-2.97
X1.73Y-1.7
X1.73Y-1.8
X1.73Y-1.9
X1.73Y-2.0
X1.73Y-2.1
X1.74Y-2.97
X1.84Y-2.97
X1.905Y-3.635
X1.94Y-2.97
X2.02Y-1.89
X2.02Y-1.96
X2.02Y-2.03
X2.02Y-3.415
X2.085Y-1.82
X2.085Y-1.89
X2.085Y-1.96
X2.085Y-2.03
X2.16Y-2.47
X2.16Y-2.57
X2.16Y-2.67
X2.16Y-2.77
X2.18Y-3.035
X2.215Y-3.075
X2.225Y-3.475
X2.255Y-1.72
X2.255Y-1.8
X2.26Y-2.47
X2.26Y-2.57
X2.26Y-2.67
X2.26Y-2.77
X2.325Y-1.72
X2.325Y-1.8
X2.41Y-2.47
X2.41Y-2.57
X2.41Y-2.67
X2.4162Y-3.56
X2.43Y-2.02
X2.43Y-2.09
X2.43Y-2.16
X2.43Y-2.23
X2.495Y-3.015
X2.5Y-2.02
X2.5Y-2.09
X2.51Y-2.47
X2.51Y-2.57
X2.51Y-2.67
X2.51Y-2.77
X2.51Y-2.88
X2.5146Y-3.545
X2.525Y-3.045
X2.53Y-3.67
X2.5638Y-3.545
X2.57Y-1.78
X2.57Y-1.86
X2.57Y-1.94
X2.57Y-2.02
X2.59Y-2.26
X2.59Y-2.31
X2.61Y-2.47
X2.61Y-2.57
X2.61Y-2.67
X2.61Y-2.77
X2.61Y-2.98
X2.63Y-2.26
X2.63Y-2.31
X2.71Y-2.47
X2.71Y-2.57
X2.71Y-2.67
X2.71Y-2.88
X2.71Y-2.98
X2.81Y-2.78
X2.81Y-2.88
X2.81Y-2.98
X2.89Y-1.74
X2.93Y-1.78
X2.995Y-2.15
X2.995Y-2.25
X3.04Y-3.12
X3.04Y-3.2
X3.04Y-3.28
X3.04Y-3.35
X3.07Y-2.52
X3.097Y-2.543
X3.1Y-2.7815
X3.11Y-2.1
X3.11Y-2.2
X3.115Y-2.645
X3.1411Y-2.785
X3.185Y-2.7856
X3.1886Y-2.8689
X3.1932Y-2.51
X3.2078Y-2.48
X3.235Y-3.045
X3.24Y-1.85
X3.24Y-1.95
X3.24Y-2.05
X3.24Y-2.15
X3.24Y-2.25
X3.24Y-2.85
X3.26Y-2.645
X3.34Y-3.29
X3.36Y-1.85
X3.36Y-2.645
X3.42Y-2.13
X3.42Y-2.19
X3.42Y-2.25
X3.425Y-2.78
X3.43Y-3.045
X3.43Y-3.095
X3.43Y-3.145
X3.43Y-3.195
X3.43Y-3.245
X3.46Y-1.85
X3.46Y-2.445
X3.46Y-2.545
X3.46Y-2.645
X3.46Y-2.745
X3.46Y-2.83
X3.5Y-2.13
X3.5Y-2.19
X3.5Y-2.25
X3.53Y-3.045
X3.53Y-3.095
X3.53Y-3.145
X3.53Y-3.195
X3.53Y-3.245
X3.56Y-1.85
X3.56Y-2.645
X3.59Y-2.91
X3.65Y-2.91
X3.66Y-1.85
X3.66Y-2.645
X3.69Y-2.0
X3.69Y-2.4588
X3.7042Y-2.4892
X3.7059Y-2.8
X3.7305Y-2.78
X3.735Y-2.5029
X3.7474Y-2.535
X3.77Y-1.92
X3.77Y-2.0
X3.78Y-2.547
X3.84Y-3.08
X3.865Y-2.765
X3.89Y-1.92
X3.925Y-2.795
X3.94Y-1.97
X3.97Y-2.1
X3.97Y-2.54
X3.97Y-2.66
X3.97Y-2.76
X3.98Y-3.18
X3.98Y-3.28
X3.98Y-3.38
X4.02Y-2.05
X4.02Y-2.15
X4.07Y-2.1
X4.07Y-2.34
X4.07Y-2.44
X4.07Y-2.54
X4.07Y-2.66
X4.07Y-2.76
X4.08Y-3.18
X4.08Y-3.28
X4.08Y-3.38
X4.15Y-2.26
X4.17Y-2.44
X4.17Y-2.54
X4.17Y-2.66
X4.17Y-2.76
X4.18Y-3.18
X4.18Y-3.28
X4.18Y-3.38
X4.27Y-2.44
X4.27Y-2.54
X4.28Y-3.18
X4.28Y-3.28
X4.28Y-3.38
X4.31Y-2.17
X4.37Y-2.44
X4.37Y-2.54
X4.38Y-3.18
X4.38Y-3.28
X4.38Y-3.38
X4.47Y-2.44
X4.47Y-2.54
X4.48Y-2.01
X4.48Y-2.13
X4.56Y-2.01
X4.56Y-2.13
T2
X1.84Y-3.12
X1.99Y-2.1
T3
X2.26Y-1.97
X2.31Y-1.97
X2.38Y-2.83
X2.795Y-1.64
X3.06Y-2.255
X3.74Y-3.02
X3.905Y-2.62
T5
X2.84Y-3.52
X2.84Y-3.62
X2.94Y-3.52
X2.94Y-3.62
X3.04Y-3.52
X3.04Y-3.62
X3.09Y-1.77
X3.14Y-3.52
X3.14Y-3.62
X3.19Y-1.77
X3.24Y-3.52
X3.24Y-3.62
X3.29Y-1.77
X3.34Y-3.52
X3.34Y-3.62
X3.39Y-1.77
X3.44Y-3.52
X3.44Y-3.62
X3.49Y-1.77
X3.54Y-3.52
X3.54Y-3.62
X3.59Y-1.77
X3.64Y-3.52
X3.64Y-3.62
X3.69Y-1.77
X3.74Y-3.52
X3.74Y-3.62
X3.79Y-1.77
X3.84Y-3.52
X3.84Y-3.62
X3.89Y-1.77
X3.94Y-3.52
X3.94Y-3.62
X3.99Y-1.77
X4.09Y-1.77
X4.19Y-1.77
X4.29Y-1.77
X4.39Y-1.77
X4.58Y-2.72
X4.58Y-2.82
X4.58Y-2.92
X4.58Y-3.02
X4.58Y-3.12
X4.58Y-3.22
T4
G00X1.7325Y-2.2475
M15
G01X1.7325Y-2.3125
M16
G05
G00X1.92Y-2.2475
M15
G01X1.92Y-2.3125
M16
G05
G00X2.1075Y-2.2475
M15
G01X2.1075Y-2.3125
M16
G05
T5
G00X1.735Y-2.6106
M15
G01X1.735Y-2.6894
M16
G05
G00X1.8137Y-2.835
M15
G01X1.8925Y-2.835
M16
G05
G00X1.9712Y-2.6106
M15
G01X1.9712Y-2.6894
M16
G05
T0
M30
