%TF.GenerationSoftware,KiCad,Pcbnew,(5.99.0-10407-g1e8b23402c)*%
%TF.CreationDate,2021-04-27T17:36:10+08:00*%
%TF.ProjectId,PIC32MX150,50494333-324d-4583-9135-302e6b696361,rev?*%
%TF.SameCoordinates,Original*%
%TF.FileFunction,Soldermask,Top*%
%TF.FilePolarity,Negative*%
%FSLAX46Y46*%
G04 Gerber Fmt 4.6, Leading zero omitted, Abs format (unit mm)*
G04 Created by KiCad (PCBNEW (5.99.0-10407-g1e8b23402c)) date 2021-04-27 17:36:10*
%MOMM*%
%LPD*%
G01*
G04 APERTURE LIST*
G04 Aperture macros list*
%AMRoundRect*
0 Rectangle with rounded corners*
0 $1 Rounding radius*
0 $2 $3 $4 $5 $6 $7 $8 $9 X,Y pos of 4 corners*
0 Add a 4 corners polygon primitive as box body*
4,1,4,$2,$3,$4,$5,$6,$7,$8,$9,$2,$3,0*
0 Add four circle primitives for the rounded corners*
1,1,$1+$1,$2,$3*
1,1,$1+$1,$4,$5*
1,1,$1+$1,$6,$7*
1,1,$1+$1,$8,$9*
0 Add four rect primitives between the rounded corners*
20,1,$1+$1,$2,$3,$4,$5,0*
20,1,$1+$1,$4,$5,$6,$7,0*
20,1,$1+$1,$6,$7,$8,$9,0*
20,1,$1+$1,$8,$9,$2,$3,0*%
%AMRotRect*
0 Rectangle, with rotation*
0 The origin of the aperture is its center*
0 $1 length*
0 $2 width*
0 $3 Rotation angle, in degrees counterclockwise*
0 Add horizontal line*
21,1,$1,$2,0,0,$3*%
G04 Aperture macros list end*
%TA.AperFunction,Profile*%
%ADD10C,0.050000*%
%TD*%
%ADD11RoundRect,0.237500X-0.044194X-0.380070X0.380070X0.044194X0.044194X0.380070X-0.380070X-0.044194X0*%
%ADD12RoundRect,0.237500X-0.380070X0.044194X0.044194X-0.380070X0.380070X-0.044194X-0.044194X0.380070X0*%
%ADD13RoundRect,0.250000X0.925000X-0.875000X0.925000X0.875000X-0.925000X0.875000X-0.925000X-0.875000X0*%
%ADD14R,1.700000X1.700000*%
%ADD15O,1.700000X1.700000*%
%ADD16RoundRect,0.237500X-0.344715X0.008839X0.008839X-0.344715X0.344715X-0.008839X-0.008839X0.344715X0*%
%ADD17RotRect,1.500000X0.550000X45.000000*%
%ADD18RotRect,1.500000X0.550000X135.000000*%
%ADD19RoundRect,0.237500X0.300000X0.237500X-0.300000X0.237500X-0.300000X-0.237500X0.300000X-0.237500X0*%
%ADD20RoundRect,0.250000X0.550000X-1.250000X0.550000X1.250000X-0.550000X1.250000X-0.550000X-1.250000X0*%
%ADD21RoundRect,0.237500X-0.237500X0.250000X-0.237500X-0.250000X0.237500X-0.250000X0.237500X0.250000X0*%
%ADD22RoundRect,0.150000X-0.825000X-0.150000X0.825000X-0.150000X0.825000X0.150000X-0.825000X0.150000X0*%
%ADD23RoundRect,0.237500X0.044194X0.380070X-0.380070X-0.044194X-0.044194X-0.380070X0.380070X0.044194X0*%
%ADD24RoundRect,0.237500X0.344715X-0.008839X-0.008839X0.344715X-0.344715X0.008839X0.008839X-0.344715X0*%
%ADD25RotRect,2.100000X1.725000X315.000000*%
%ADD26RoundRect,0.237500X-0.300000X-0.237500X0.300000X-0.237500X0.300000X0.237500X-0.300000X0.237500X0*%
%ADD27R,2.000000X3.400000*%
%ADD28RoundRect,0.914400X-0.609600X-0.990600X0.609600X-0.990600X0.609600X0.990600X-0.609600X0.990600X0*%
%ADD29R,1.380000X0.450000*%
%ADD30R,1.550000X1.425000*%
%ADD31R,1.300000X1.650000*%
%ADD32R,1.900000X1.000000*%
%ADD33R,1.900000X1.800000*%
%ADD34R,3.500000X3.500000*%
%ADD35RoundRect,0.750000X-0.750000X-1.000000X0.750000X-1.000000X0.750000X1.000000X-0.750000X1.000000X0*%
%ADD36RoundRect,0.875000X-0.875000X-0.875000X0.875000X-0.875000X0.875000X0.875000X-0.875000X0.875000X0*%
%ADD37RoundRect,0.237500X0.237500X-0.250000X0.237500X0.250000X-0.237500X0.250000X-0.237500X-0.250000X0*%
%ADD38RoundRect,0.237500X0.237500X-0.300000X0.237500X0.300000X-0.237500X0.300000X-0.237500X-0.300000X0*%
%ADD39R,1.910000X0.610000*%
%ADD40R,1.205000X1.550000*%
%ADD41R,3.500000X1.800000*%
%ADD42RoundRect,0.237500X-0.287500X-0.237500X0.287500X-0.237500X0.287500X0.237500X-0.287500X0.237500X0*%
%ADD43RoundRect,0.237500X0.237500X-0.287500X0.237500X0.287500X-0.237500X0.287500X-0.237500X-0.287500X0*%
%ADD44R,0.900000X1.700000*%
%ADD45R,1.300000X1.550000*%
%ADD46RoundRect,0.200000X-0.200000X-0.600000X0.200000X-0.600000X0.200000X0.600000X-0.200000X0.600000X0*%
%ADD47RoundRect,0.250001X-0.799999X-1.249999X0.799999X-1.249999X0.799999X1.249999X-0.799999X1.249999X0*%
G04 APERTURE END LIST*
D10*
X118000000Y-40000000D02*
G75*
G02*
X120000000Y-42000000I0J-2000000D01*
G01*
X42000000Y-95000000D02*
G75*
G02*
X40000000Y-93000000I0J2000000D01*
G01*
X120000000Y-93000000D02*
G75*
G02*
X118000000Y-95000000I-2000000J0D01*
G01*
X42000000Y-95000000D02*
X118000000Y-95000000D01*
X40000000Y-42000000D02*
X40000000Y-93000000D01*
X40000000Y-42000000D02*
G75*
G02*
X42000000Y-40000000I2000000J0D01*
G01*
X118000000Y-40000000D02*
X42000000Y-40000000D01*
X120000000Y-93000000D02*
X120000000Y-42000000D01*
D11*
%TO.C,C1*%
X98488500Y-64389000D03*
X99708260Y-63169240D03*
%TD*%
D12*
%TO.C,C2*%
X94386120Y-73660000D03*
X95605880Y-74879760D03*
%TD*%
D11*
%TO.C,C4*%
X80532000Y-60927000D03*
X81751760Y-59707240D03*
%TD*%
D13*
%TO.C,C6*%
X74930000Y-74686000D03*
X74930000Y-69586000D03*
%TD*%
D14*
%TO.C,J1*%
X72136000Y-89408000D03*
D15*
X72136000Y-91948000D03*
X74676000Y-89408000D03*
X74676000Y-91948000D03*
X77216000Y-89408000D03*
X77216000Y-91948000D03*
X79756000Y-89408000D03*
X79756000Y-91948000D03*
X82296000Y-89408000D03*
X82296000Y-91948000D03*
X84836000Y-89408000D03*
X84836000Y-91948000D03*
X87376000Y-89408000D03*
X87376000Y-91948000D03*
X89916000Y-89408000D03*
X89916000Y-91948000D03*
X92456000Y-89408000D03*
X92456000Y-91948000D03*
X94996000Y-89408000D03*
X94996000Y-91948000D03*
X97536000Y-89408000D03*
X97536000Y-91948000D03*
X100076000Y-89408000D03*
X100076000Y-91948000D03*
%TD*%
D16*
%TO.C,R2*%
X95758000Y-72136000D03*
X97048470Y-73426470D03*
%TD*%
D17*
%TO.C,U1*%
X81039059Y-68352087D03*
X81604745Y-68917772D03*
X82170430Y-69483457D03*
X82736115Y-70049143D03*
X83301801Y-70614828D03*
X83867486Y-71180514D03*
X84433172Y-71746199D03*
X84998857Y-72311885D03*
X85564543Y-72877570D03*
X86130228Y-73443255D03*
X86695913Y-74008941D03*
D18*
X89100077Y-74008941D03*
X89665762Y-73443255D03*
X90231447Y-72877570D03*
X90797133Y-72311885D03*
X91362818Y-71746199D03*
X91928504Y-71180514D03*
X92494189Y-70614828D03*
X93059875Y-70049143D03*
X93625560Y-69483457D03*
X94191245Y-68917772D03*
X94756931Y-68352087D03*
D17*
X94756931Y-65947923D03*
X94191245Y-65382238D03*
X93625560Y-64816553D03*
X93059875Y-64250867D03*
X92494189Y-63685182D03*
X91928504Y-63119496D03*
X91362818Y-62553811D03*
X90797133Y-61988125D03*
X90231447Y-61422440D03*
X89665762Y-60856755D03*
X89100077Y-60291069D03*
D18*
X86695913Y-60291069D03*
X86130228Y-60856755D03*
X85564543Y-61422440D03*
X84998857Y-61988125D03*
X84433172Y-62553811D03*
X83867486Y-63119496D03*
X83301801Y-63685182D03*
X82736115Y-64250867D03*
X82170430Y-64816553D03*
X81604745Y-65382238D03*
X81039059Y-65947923D03*
%TD*%
D19*
%TO.C,C8*%
X47217500Y-53340000D03*
X45492500Y-53340000D03*
%TD*%
D20*
%TO.C,C9*%
X47880000Y-49358000D03*
X47880000Y-44958000D03*
%TD*%
D19*
%TO.C,C10*%
X67156500Y-53340000D03*
X65431500Y-53340000D03*
%TD*%
D20*
%TO.C,C11*%
X55372000Y-49358000D03*
X55372000Y-44958000D03*
%TD*%
D21*
%TO.C,R4*%
X58166000Y-55983500D03*
X58166000Y-57808500D03*
%TD*%
D22*
%TO.C,U3*%
X53151000Y-74549000D03*
X53151000Y-75819000D03*
X53151000Y-77089000D03*
X53151000Y-78359000D03*
X53151000Y-79629000D03*
X53151000Y-80899000D03*
X53151000Y-82169000D03*
X53151000Y-83439000D03*
X58101000Y-83439000D03*
X58101000Y-82169000D03*
X58101000Y-80899000D03*
X58101000Y-79629000D03*
X58101000Y-78359000D03*
X58101000Y-77089000D03*
X58101000Y-75819000D03*
X58101000Y-74549000D03*
%TD*%
D14*
%TO.C,J4*%
X116332000Y-69088000D03*
D15*
X116332000Y-71628000D03*
X116332000Y-74168000D03*
X116332000Y-76708000D03*
X116332000Y-79248000D03*
X116332000Y-81788000D03*
%TD*%
D11*
%TO.C,C13*%
X93218000Y-53848000D03*
X94437760Y-52628240D03*
%TD*%
D23*
%TO.C,C14*%
X101193880Y-58572120D03*
X99974120Y-59791880D03*
%TD*%
D24*
%TO.C,R5*%
X94121000Y-59403000D03*
X92830530Y-58112530D03*
%TD*%
D25*
%TO.C,Y1*%
X95438217Y-55971674D03*
X97488826Y-58022283D03*
X99026783Y-56484326D03*
X96976174Y-54433717D03*
%TD*%
D26*
%TO.C,C17*%
X58219000Y-53340000D03*
X59944000Y-53340000D03*
%TD*%
D27*
%TO.C,L1*%
X68128000Y-47498000D03*
X62428000Y-47498000D03*
%TD*%
D11*
%TO.C,C3*%
X78500000Y-58895000D03*
X79719760Y-57675240D03*
%TD*%
D14*
%TO.C,J5*%
X111506000Y-44958000D03*
D15*
X108966000Y-44958000D03*
X106426000Y-44958000D03*
X103886000Y-44958000D03*
X101346000Y-44958000D03*
X98806000Y-44958000D03*
X96266000Y-44958000D03*
X93726000Y-44958000D03*
X91186000Y-44958000D03*
X88646000Y-44958000D03*
X86106000Y-44958000D03*
X83566000Y-44958000D03*
X81026000Y-44958000D03*
X78486000Y-44958000D03*
%TD*%
D28*
%TO.C,SW2*%
X44005500Y-57912000D03*
X48768000Y-57912000D03*
X53530500Y-57912000D03*
%TD*%
D29*
%TO.C,J2*%
X44132000Y-80234000D03*
X44132000Y-80884000D03*
X44132000Y-81534000D03*
X44132000Y-82184000D03*
X44132000Y-82834000D03*
D30*
X44047000Y-84021500D03*
D31*
X41472000Y-78159000D03*
X41472000Y-84909000D03*
D32*
X41472000Y-83084000D03*
D30*
X44047000Y-79046500D03*
D33*
X41472000Y-80384000D03*
%TD*%
D34*
%TO.C,J3*%
X50069000Y-67310000D03*
D35*
X44069000Y-67310000D03*
D36*
X47069000Y-72010000D03*
%TD*%
D37*
%TO.C,R3*%
X59944000Y-57808500D03*
X59944000Y-55983500D03*
%TD*%
D38*
%TO.C,C18*%
X61087000Y-76274000D03*
X61087000Y-74549000D03*
%TD*%
D39*
%TO.C,U2*%
X63514000Y-56007000D03*
X63514000Y-57277000D03*
X63514000Y-58547000D03*
X63514000Y-59817000D03*
X69074000Y-59817000D03*
X69074000Y-58547000D03*
X69074000Y-57277000D03*
X69074000Y-56007000D03*
D40*
X65691500Y-57137000D03*
X65691500Y-58687000D03*
X66896500Y-57137000D03*
X66896500Y-58687000D03*
%TD*%
D19*
%TO.C,C12*%
X50419000Y-78359000D03*
X48694000Y-78359000D03*
%TD*%
D26*
%TO.C,C16*%
X72517000Y-55372000D03*
X74242000Y-55372000D03*
%TD*%
%TO.C,C15*%
X72517000Y-57276000D03*
X74242000Y-57276000D03*
%TD*%
D41*
%TO.C,D1*%
X73446000Y-50038000D03*
X78446000Y-50038000D03*
%TD*%
D42*
%TO.C,D4*%
X52211000Y-53340000D03*
X53961000Y-53340000D03*
%TD*%
D11*
%TO.C,C5*%
X96926120Y-62839880D03*
X98145880Y-61620120D03*
%TD*%
D37*
%TO.C,R10*%
X61087000Y-81430500D03*
X61087000Y-79605500D03*
%TD*%
%TO.C,R9*%
X67945000Y-81430500D03*
X67945000Y-79605500D03*
%TD*%
%TO.C,R11*%
X116332000Y-63904500D03*
X116332000Y-62079500D03*
%TD*%
D43*
%TO.C,D5*%
X65659000Y-81393000D03*
X65659000Y-79643000D03*
%TD*%
%TO.C,D6*%
X63373000Y-81393000D03*
X63373000Y-79643000D03*
%TD*%
%TO.C,D2*%
X108458000Y-53453000D03*
X108458000Y-51703000D03*
%TD*%
D44*
%TO.C,SW1*%
X108028000Y-72136000D03*
X111428000Y-72136000D03*
%TD*%
D45*
%TO.C,SW3*%
X112558000Y-56558000D03*
X112558000Y-48598000D03*
X117058000Y-56558000D03*
X117058000Y-48598000D03*
%TD*%
D46*
%TO.C,J6*%
X61371000Y-88278000D03*
X62621000Y-88278000D03*
X63871000Y-88278000D03*
X65121000Y-88278000D03*
D47*
X67671000Y-91178000D03*
X58821000Y-91178000D03*
%TD*%
D46*
%TO.C,J7*%
X47147000Y-88286000D03*
X48397000Y-88286000D03*
X49647000Y-88286000D03*
X50897000Y-88286000D03*
D47*
X53447000Y-91186000D03*
X44597000Y-91186000D03*
%TD*%
D43*
%TO.C,D3*%
X105410000Y-53453000D03*
X105410000Y-51703000D03*
%TD*%
M02*
