%TF.GenerationSoftware,KiCad,Pcbnew,(5.99.0-10407-g1e8b23402c)*%
%TF.CreationDate,2021-04-27T17:36:10+08:00*%
%TF.ProjectId,PIC32MX150,50494333-324d-4583-9135-302e6b696361,rev?*%
%TF.SameCoordinates,Original*%
%TF.FileFunction,Soldermask,Bot*%
%TF.FilePolarity,Negative*%
%FSLAX46Y46*%
G04 Gerber Fmt 4.6, Leading zero omitted, Abs format (unit mm)*
G04 Created by KiCad (PCBNEW (5.99.0-10407-g1e8b23402c)) date 2021-04-27 17:36:10*
%MOMM*%
%LPD*%
G01*
G04 APERTURE LIST*
G04 Aperture macros list*
%AMRoundRect*
0 Rectangle with rounded corners*
0 $1 Rounding radius*
0 $2 $3 $4 $5 $6 $7 $8 $9 X,Y pos of 4 corners*
0 Add a 4 corners polygon primitive as box body*
4,1,4,$2,$3,$4,$5,$6,$7,$8,$9,$2,$3,0*
0 Add four circle primitives for the rounded corners*
1,1,$1+$1,$2,$3*
1,1,$1+$1,$4,$5*
1,1,$1+$1,$6,$7*
1,1,$1+$1,$8,$9*
0 Add four rect primitives between the rounded corners*
20,1,$1+$1,$2,$3,$4,$5,0*
20,1,$1+$1,$4,$5,$6,$7,0*
20,1,$1+$1,$6,$7,$8,$9,0*
20,1,$1+$1,$8,$9,$2,$3,0*%
G04 Aperture macros list end*
%TA.AperFunction,Profile*%
%ADD10C,0.050000*%
%TD*%
%ADD11R,1.700000X1.700000*%
%ADD12O,1.700000X1.700000*%
%ADD13RoundRect,0.914400X-0.609600X-0.990600X0.609600X-0.990600X0.609600X0.990600X-0.609600X0.990600X0*%
%ADD14R,3.500000X3.500000*%
%ADD15RoundRect,0.750000X-0.750000X-1.000000X0.750000X-1.000000X0.750000X1.000000X-0.750000X1.000000X0*%
%ADD16RoundRect,0.875000X-0.875000X-0.875000X0.875000X-0.875000X0.875000X0.875000X-0.875000X0.875000X0*%
%ADD17RoundRect,0.237500X0.300000X0.237500X-0.300000X0.237500X-0.300000X-0.237500X0.300000X-0.237500X0*%
%ADD18RoundRect,0.237500X-0.250000X-0.237500X0.250000X-0.237500X0.250000X0.237500X-0.250000X0.237500X0*%
%ADD19R,1.500000X1.000000*%
%ADD20RoundRect,0.237500X0.237500X-0.250000X0.237500X0.250000X-0.237500X0.250000X-0.237500X-0.250000X0*%
%ADD21RoundRect,0.237500X0.250000X0.237500X-0.250000X0.237500X-0.250000X-0.237500X0.250000X-0.237500X0*%
G04 APERTURE END LIST*
D10*
X118000000Y-40000000D02*
G75*
G02*
X120000000Y-42000000I0J-2000000D01*
G01*
X42000000Y-95000000D02*
G75*
G02*
X40000000Y-93000000I0J2000000D01*
G01*
X120000000Y-93000000D02*
G75*
G02*
X118000000Y-95000000I-2000000J0D01*
G01*
X42000000Y-95000000D02*
X118000000Y-95000000D01*
X40000000Y-42000000D02*
X40000000Y-93000000D01*
X40000000Y-42000000D02*
G75*
G02*
X42000000Y-40000000I2000000J0D01*
G01*
X118000000Y-40000000D02*
X42000000Y-40000000D01*
X120000000Y-93000000D02*
X120000000Y-42000000D01*
D11*
%TO.C,J1*%
X72136000Y-89408000D03*
D12*
X72136000Y-91948000D03*
X74676000Y-89408000D03*
X74676000Y-91948000D03*
X77216000Y-89408000D03*
X77216000Y-91948000D03*
X79756000Y-89408000D03*
X79756000Y-91948000D03*
X82296000Y-89408000D03*
X82296000Y-91948000D03*
X84836000Y-89408000D03*
X84836000Y-91948000D03*
X87376000Y-89408000D03*
X87376000Y-91948000D03*
X89916000Y-89408000D03*
X89916000Y-91948000D03*
X92456000Y-89408000D03*
X92456000Y-91948000D03*
X94996000Y-89408000D03*
X94996000Y-91948000D03*
X97536000Y-89408000D03*
X97536000Y-91948000D03*
X100076000Y-89408000D03*
X100076000Y-91948000D03*
%TD*%
D11*
%TO.C,J4*%
X116332000Y-69088000D03*
D12*
X116332000Y-71628000D03*
X116332000Y-74168000D03*
X116332000Y-76708000D03*
X116332000Y-79248000D03*
X116332000Y-81788000D03*
%TD*%
D11*
%TO.C,J5*%
X111506000Y-44958000D03*
D12*
X108966000Y-44958000D03*
X106426000Y-44958000D03*
X103886000Y-44958000D03*
X101346000Y-44958000D03*
X98806000Y-44958000D03*
X96266000Y-44958000D03*
X93726000Y-44958000D03*
X91186000Y-44958000D03*
X88646000Y-44958000D03*
X86106000Y-44958000D03*
X83566000Y-44958000D03*
X81026000Y-44958000D03*
X78486000Y-44958000D03*
%TD*%
D13*
%TO.C,SW2*%
X44005500Y-57912000D03*
X48768000Y-57912000D03*
X53530500Y-57912000D03*
%TD*%
D14*
%TO.C,J3*%
X50069000Y-67310000D03*
D15*
X44069000Y-67310000D03*
D16*
X47069000Y-72010000D03*
%TD*%
D17*
%TO.C,C7*%
X101954500Y-74676000D03*
X100229500Y-74676000D03*
%TD*%
D18*
%TO.C,R1*%
X100179500Y-76708000D03*
X102004500Y-76708000D03*
%TD*%
D19*
%TO.C,JP1*%
X104648000Y-76342000D03*
X104648000Y-75042000D03*
%TD*%
D20*
%TO.C,R7*%
X48768000Y-53340000D03*
X48768000Y-51515000D03*
%TD*%
D21*
%TO.C,R6*%
X109474000Y-56896000D03*
X107649000Y-56896000D03*
%TD*%
%TO.C,R8*%
X109474000Y-58928000D03*
X107649000Y-58928000D03*
%TD*%
M02*
